<svg width="26" height="25" viewBox="0 0 26 25" fill="none" xmlns="http://www.w3.org/2000/svg"><path fill-rule="evenodd" clip-rule="evenodd" d="M11.556.975c5.914 0 10.707 4.554 10.707 10.171 0 2.598-1.025 4.97-2.713 6.767l5.997 5.566a.717.717 0 0 1 .013 1.051.812.812 0 0 1-1.106.012l-6.028-5.594c-1.86 1.479-4.255 2.369-6.87 2.369-5.914 0-10.707-4.553-10.707-10.171C.849 5.529 5.642.976 11.556.976zm0 1.486c-5.05 0-9.143 3.888-9.143 8.685 0 4.797 4.093 8.685 9.143 8.685 5.049 0 9.142-3.888 9.142-8.685 0-4.797-4.093-8.685-9.143-8.685z" fill="#383B45"></path></svg>