<svg width="24" height="25" viewBox="0 0 24 25" fill="none" xmlns="http://www.w3.org/2000/svg" class="jsx-3133040459"><path fill-rule="evenodd" clip-rule="evenodd" d="M12 .48C5.373.48 0 5.827 0 12.422c0 6.596 5.373 11.942 12 11.942s12-5.346 12-11.942C24 5.827 18.627.48 12 .48zM9.363 6.091c.683-.03.901-.038 2.64-.038H12c1.739 0 1.956.007 2.639.038.681.031 1.147.139 1.555.296.42.163.777.38 1.133.735.356.354.575.709.739 1.128.157.405.265.868.297 1.546.03.679.039.896.039 2.626s-.008 1.946-.04 2.625c-.031.678-.14 1.141-.296 1.546a3.125 3.125 0 0 1-.74 1.128 3.132 3.132 0 0 1-1.132.735c-.407.158-.873.265-1.554.296-.683.031-.9.039-2.639.039-1.738 0-1.956-.008-2.638-.039-.682-.03-1.147-.138-1.554-.296a3.134 3.134 0 0 1-1.133-.735 3.119 3.119 0 0 1-.738-1.128c-.159-.405-.266-.868-.298-1.546-.03-.679-.038-.895-.038-2.625s.008-1.947.038-2.627c.03-.677.139-1.14.297-1.545.164-.42.383-.774.74-1.128a3.135 3.135 0 0 1 1.133-.735c.407-.157.872-.265 1.553-.296z" fill="#535768"></path><path fill-rule="evenodd" clip-rule="evenodd" d="M11.427 7.201H12c1.708 0 1.911.006 2.586.037.624.028.963.132 1.188.219.299.115.512.253.736.476.224.223.362.436.479.733.087.224.192.561.22 1.182.03.671.037.873.037 2.573s-.006 1.901-.037 2.573c-.029.62-.133.958-.22 1.182a1.968 1.968 0 0 1-.48.732 1.98 1.98 0 0 1-.735.476c-.225.088-.564.191-1.188.22-.675.03-.878.037-2.586.037-1.71 0-1.912-.007-2.587-.037-.624-.03-.962-.133-1.188-.22a1.982 1.982 0 0 1-.736-.477 1.973 1.973 0 0 1-.479-.732c-.087-.224-.192-.56-.22-1.182-.031-.671-.037-.873-.037-2.574 0-1.7.006-1.901.037-2.573.028-.62.133-.958.22-1.182.116-.297.255-.51.479-.732.224-.223.437-.361.736-.477.226-.088.564-.191 1.188-.22.59-.026.82-.034 2.013-.036v.002zm3.99 1.058a.766.766 0 0 0-.768.764c0 .422.344.764.768.764a.766.766 0 0 0 .768-.764.766.766 0 0 0-.768-.765zm-6.703 4.163A3.279 3.279 0 0 1 12 9.152a3.279 3.279 0 0 1 3.286 3.27A3.278 3.278 0 0 1 12 15.692a3.278 3.278 0 0 1-3.287-3.27z" fill="#535768"></path><path d="M12 10.3c1.179 0 2.134.95 2.134 2.122A2.128 2.128 0 0 1 12 14.546a2.128 2.128 0 0 1-2.134-2.123c0-1.172.955-2.123 2.133-2.123z" fill="#535768"></path></svg>