<svg width="24" height="25" viewBox="0 0 24 25" fill="none" xmlns="http://www.w3.org/2000/svg" class="jsx-3133040459"><path fill-rule="evenodd" clip-rule="evenodd" d="M12 .48C5.373.48 0 5.827 0 12.422c0 6.596 5.373 11.942 12 11.942s12-5.346 12-11.942C24 5.827 18.627.48 12 .48zm-6.24 9.891h2.72v8.131H5.76v-8.13zm2.9-2.515c-.017-.798-.59-1.405-1.52-1.405s-1.538.607-1.538 1.405c0 .78.59 1.405 1.503 1.405h.017c.948 0 1.539-.625 1.539-1.405zm6.495 2.324c1.79 0 3.132 1.162 3.132 3.66v4.662h-2.72v-4.35c0-1.093-.393-1.839-1.378-1.839-.751 0-1.199.503-1.395.989-.072.174-.09.416-.09.659v4.541h-2.72s.036-7.368 0-8.131h2.72v1.152c.361-.554 1.007-1.343 2.451-1.343z" fill="#535768"></path></svg>