<svg width="24" height="25" viewBox="0 0 24 25" fill="none" xmlns="http://www.w3.org/2000/svg" class="jsx-3133040459"><path fill-rule="evenodd" clip-rule="evenodd" d="M12 .48C5.373.48 0 5.827 0 12.422c0 6.596 5.373 11.942 12 11.942s12-5.346 12-11.942C24 5.827 18.627.48 12 .48zm5.002 7.836c.551.15.985.594 1.132 1.157.268 1.02.268 3.148.268 3.148s0 2.128-.268 3.148a1.621 1.621 0 0 1-1.132 1.156c-.998.273-5 .273-5 .273s-4.003 0-5.001-.273a1.621 1.621 0 0 1-1.132-1.156c-.267-1.02-.267-3.148-.267-3.148s0-2.128.267-3.148a1.62 1.62 0 0 1 1.132-1.157c.998-.273 5-.273 5-.273s4.003 0 5.001.273z" fill="#535768"></path><path d="M10.8 14.81v-3.98l3.2 1.99-3.2 1.99z" fill="#535768"></path></svg>