<svg width="24" height="25" viewBox="0 0 24 25" fill="none" xmlns="http://www.w3.org/2000/svg" class="jsx-3133040459"><path fill-rule="evenodd" clip-rule="evenodd" d="M12 .48C5.373.48 0 5.827 0 12.422c0 6.596 5.373 11.942 12 11.942s12-5.346 12-11.942C24 5.827 18.627.48 12 .48zm-.334 10.12l-.025-.413c-.076-1.071.587-2.05 1.636-2.429.387-.135 1.041-.152 1.47-.033.167.05.486.219.713.37l.411.279.453-.143c.252-.076.588-.203.739-.287.143-.076.269-.118.269-.093 0 .143-.311.633-.571.902-.353.38-.252.414.461.16.428-.143.437-.143.353.017-.05.085-.31.38-.588.65-.47.464-.495.514-.495.902 0 .599-.285 1.847-.57 2.53-.53 1.282-1.663 2.606-2.796 3.272-1.595.936-3.718 1.172-5.506.624-.596-.185-1.62-.658-1.62-.742 0-.025.31-.059.688-.067a4.743 4.743 0 0 0 2.25-.624l.453-.27-.52-.178c-.739-.252-1.402-.834-1.57-1.382-.05-.178-.034-.186.437-.186l.486-.008-.411-.194c-.487-.245-.932-.658-1.15-1.08-.16-.303-.36-1.07-.302-1.13.017-.025.193.025.394.093.58.21.655.16.32-.194-.63-.641-.823-1.594-.521-2.496l.143-.405.554.548c1.133 1.105 2.467 1.763 3.995 1.957l.42.05z" fill="#535768"></path></svg>