<svg width="17" height="17" viewBox="0 0 17 17" fill="none" xmlns="http://www.w3.org/2000/svg" class="jsx-502182112 menu-item-title-icon"><g clip-path="url(#a)" stroke="#000" stroke-miterlimit="10"><path d="M15.017 7.35v8.581c0 .365-.251.664-.567.664H2.493c-.315 0-.566-.3-.566-.664v-8.58"></path><path d="M.93 4.056L2.543.405h11.77l1.546 3.57" stroke-linecap="round"></path><path d="M4.42 5.472c0 1.15-.899 2.089-2.008 2.089S.405 6.63.405 5.472c0-.574.226-1.1.59-1.473M8.557 5.472c0 1.15-.899 2.089-2.008 2.089S4.541 6.63 4.541 5.472M12.58 5.472c0 1.15-.898 2.089-2.007 2.089-1.11 0-2.008-.931-2.008-2.089" stroke-linecap="round"></path><path d="M15.923 3.999c.494.397.672.753.672 1.473 0 1.15-.898 2.089-2.007 2.089-1.11 0-2.008-.931-2.008-2.089M1.077 3.999h14.846" stroke-linecap="round"></path><path d="M7 17v-6h3v6"></path></g><defs><clipPath id="a"><path fill="#fff" d="M0 0h17v17H0z"></path></clipPath></defs></svg>